<svg width="20" height="24" viewBox="0 0 20 24" fill="none" xmlns="http://www.w3.org/2000/svg">
<path d="M7.30074 16.3519C4.25809 16.7684 2.14825 17.8766 2.14825 19.2131C2.14825 20.9398 5.58164 22.2732 10.005 22.2732C14.4073 22.2732 17.8618 20.918 17.8618 19.2131C17.8618 17.8834 15.7333 16.7692 12.6887 16.3514C12.704 16.066 12.7117 15.7667 12.7117 15.4536V14.5873C17.0932 15.0966 19.9998 16.8593 19.9998 19.2131C19.9998 22.0328 15.8607 24 10.0155 24C4.15984 24 -0.000244141 22.0328 -0.000244141 19.2131C-0.000244141 16.8658 2.90504 15.1064 7.27727 14.5915V15.4536C7.27727 15.7669 7.28512 16.0663 7.30074 16.3519Z" fill="#044D5E"/>
<path d="M6.04504 4.12022C6.04504 6.04372 7.30887 7.65026 9.02559 8.09838V15.0164C9.02559 18.2405 9.57318 20 10.005 20C10.4263 20 10.9739 18.2514 10.9739 15.0164V8.09838C12.6907 7.66117 13.9544 6.04372 13.9544 4.12022C13.9544 1.85793 12.1956 0 10.005 0C7.80386 0 6.04504 1.85793 6.04504 4.12022ZM8.86759 4.34973C8.15142 4.34973 7.51951 3.69399 7.51951 2.92897C7.51951 2.17486 8.15142 1.53006 8.86759 1.53006C9.61533 1.53006 10.2262 2.17486 10.2262 2.92897C10.2262 3.69399 9.61533 4.34973 8.86759 4.34973Z" fill="#044D5E"/>
</svg>
