<svg width="26" height="18" viewBox="0 0 26 18" fill="none" xmlns="http://www.w3.org/2000/svg">
<path d="M3.3831 18H22.9397C24.8684 18 25.9998 16.9142 25.9998 14.7633V3.23666C25.9998 1.08585 24.8577 0 22.6165 0H3.05985C1.13113 0 -0.000244141 1.08585 -0.000244141 3.23666V14.7633C-0.000244141 16.9142 1.14191 18 3.3831 18ZM3.31846 16.4026C2.25173 16.4026 1.64833 15.8283 1.64833 14.7529V3.22622C1.64833 2.16126 2.25173 1.59745 3.31846 1.59745H22.6703C23.737 1.59745 24.3512 2.16126 24.3512 3.23666V14.7633C24.3512 15.8283 23.737 16.4026 22.6703 16.4026H3.31846ZM12.9944 11.746C13.684 11.746 14.3521 11.4954 14.9662 10.9525L25.1055 2.10906L23.9848 1.01277L14.0288 9.71004C13.6947 10.0024 13.3499 10.1381 12.9944 10.1381C12.6388 10.1381 12.294 10.0024 11.96 9.71004L2.00391 1.01277L0.883305 2.10906L11.0226 10.9525C11.6367 11.4954 12.3048 11.746 12.9944 11.746ZM2.16553 16.6636L9.81579 9.24015L8.69517 8.15431L1.04493 15.5673L2.16553 16.6636ZM23.8448 16.6741L24.9654 15.5778L17.3044 8.15431L16.173 9.24015L23.8448 16.6741Z" fill="#044D5E"/>
</svg>
