<svg width="24" height="24" viewBox="0 0 24 24" fill="none" xmlns="http://www.w3.org/2000/svg">
<path d="M17.8403 24C19.9874 24 21.3985 23.4233 22.6377 22.0246C22.7358 21.9264 22.834 21.8159 22.9199 21.7178C23.6562 20.8957 23.9997 20.0859 23.9997 19.3129C23.9997 18.4295 23.4843 17.6074 22.3923 16.8467L18.8219 14.3681C17.7298 13.6075 16.4292 13.5216 15.3985 14.54L14.4538 15.4848C14.1716 15.767 13.9262 15.7792 13.6563 15.6074C12.9937 15.1903 11.6563 14.0246 10.7483 13.1166C9.79127 12.1719 8.87104 11.1167 8.38025 10.3437C8.22074 10.0615 8.23301 9.82839 8.51521 9.54618L9.44772 8.60141C10.4784 7.57075 10.3925 6.27016 9.63177 5.17815L7.15327 1.60765C6.39255 0.515637 5.57047 0.0125764 4.68705 0.00030669C3.91405 -0.0119631 3.10425 0.34386 2.28218 1.08004C2.17175 1.1782 2.07359 1.26409 1.97543 1.34998C0.576679 2.6015 0 4.01251 0 6.13519C0 9.64434 2.15948 13.9143 6.12262 17.8773C10.0612 21.8159 14.3433 24 17.8403 24ZM17.8525 22.1104C14.7237 22.1718 10.7115 19.7669 7.53363 16.6013C4.33123 13.4112 1.81593 9.26398 1.87728 6.13519C1.90182 4.78552 2.38034 3.61988 3.33738 2.78554C3.42326 2.71193 3.48461 2.65057 3.57051 2.58923C3.9386 2.27021 4.33123 2.09844 4.68705 2.09844C5.04288 2.09844 5.36188 2.23341 5.59501 2.6015L7.97535 6.17199C8.23301 6.55237 8.25755 6.9818 7.87719 7.36216L6.79745 8.4419C5.95083 9.28852 6.01219 10.3192 6.62567 11.1412C7.32505 12.0861 8.53976 13.4603 9.48452 14.3928C10.417 15.3375 11.9017 16.6627 12.8587 17.3742C13.6808 17.9878 14.7115 18.0492 15.5581 17.2025L16.6378 16.1227C17.0182 15.7425 17.4353 15.767 17.8279 16.0124L21.3985 18.3927C21.7542 18.6381 21.9016 18.9448 21.9016 19.3129C21.9016 19.6688 21.7297 20.0614 21.4107 20.4295C21.3371 20.5153 21.288 20.5767 21.2144 20.6626C20.38 21.6196 19.2145 22.0858 17.8525 22.1104Z" fill="#044D5E"/>
</svg>
